<svg width="30" height="30" viewBox="0 0 30 30" fill="none" xmlns="http://www.w3.org/2000/svg">
<path fill-rule="evenodd" clip-rule="evenodd" d="M14.9987 0.5C6.99271 0.5 0.5 6.99185 0.5 15.0005C0.5 21.406 4.6543 26.8412 10.4162 28.7594C11.1417 28.8921 11.406 28.4443 11.406 28.0598C11.406 27.7153 11.3936 26.8038 11.3865 25.5941C7.35322 26.47 6.50224 23.65 6.50224 23.65C5.84265 21.9748 4.89198 21.5288 4.89198 21.5288C3.57545 20.6297 4.99167 20.6475 4.99167 20.6475C6.44706 20.7499 7.21258 22.1421 7.21258 22.1421C8.50596 24.3577 10.6067 23.7176 11.4328 23.3464C11.5645 22.41 11.9392 21.7709 12.3532 21.4086C9.13351 21.0419 5.7483 19.7984 5.7483 14.2421C5.7483 12.6585 6.31354 11.3651 7.24107 10.3513C7.09152 9.98452 6.59393 8.51041 7.38349 6.51382C7.38349 6.51382 8.60031 6.12393 11.3704 7.99946C12.5267 7.67812 13.7676 7.5179 15.0004 7.51167C16.2324 7.5179 17.4724 7.67812 18.6305 7.99946C21.3988 6.12393 22.6138 6.51382 22.6138 6.51382C23.4052 8.51041 22.9076 9.98452 22.7589 10.3513C23.6883 11.3651 24.249 12.6585 24.249 14.2421C24.249 19.8126 20.8585 21.0383 17.629 21.397C18.1489 21.8448 18.6127 22.7296 18.6127 24.0826C18.6127 26.0204 18.5948 27.5844 18.5948 28.0598C18.5948 28.4479 18.8566 28.8992 19.5918 28.7576C25.3493 26.8358 29.5 21.4051 29.5 15.0005C29.5 6.99185 23.0073 0.5 14.9987 0.5Z" fill="#FBFBFB"/>
</svg>
