<svg width="28" height="28" viewBox="0 0 28 28" fill="none" xmlns="http://www.w3.org/2000/svg">
<path d="M7.26016 21V11.28H10.2602V21H7.26016ZM7.02016 8.22C7.02016 7.26 7.80016 6.48 8.76016 6.48C9.72016 6.48 10.5002 7.26 10.5002 8.22C10.5002 9.18 9.72016 9.96 8.76016 9.96C7.80016 9.96 7.02016 9.18 7.02016 8.22ZM12.4155 21V11.28H15.2955V12.6H15.3355C15.7355 11.84 16.7155 11.04 18.1755 11.04C21.2155 11.04 21.7755 13.04 21.7755 15.64V21H18.7755V16.24C18.7755 15.12 18.7555 13.68 17.2155 13.68C15.6555 13.68 15.4155 14.9 15.4155 16.16V21H12.4155Z" fill="#FBFBFB"/>
<rect x="1" y="1" width="26" height="26" rx="5" stroke="#FBFBFB" stroke-width="2"/>
</svg>
