<svg width="18" height="17" viewBox="0 0 18 17" fill="none" xmlns="http://www.w3.org/2000/svg">
<path d="M7.97668 1.23987C8.25004 1.0272 8.58288 0.904977 8.92891 0.890192C9.27495 0.875406 9.61699 0.968793 9.90751 1.15737L10.0233 1.2407L17.01 6.67404C17.6108 7.14154 17.3183 8.08404 16.5942 8.16154L16.4975 8.16654H15.6667V14.8332C15.6668 15.2537 15.508 15.6587 15.2221 15.967C14.9362 16.2753 14.5443 16.4642 14.125 16.4957L14 16.4999H4.00001C3.57967 16.4998 3.17489 16.3409 2.86675 16.055C2.55861 15.7691 2.36987 15.3774 2.33834 14.9582L2.33334 14.8332V8.16654H1.50251C0.741675 8.16654 0.392509 7.2432 0.916675 6.73737L0.990009 6.67404L7.97668 1.23987ZM9.00001 2.5557L3.68751 6.68737C3.87834 6.84154 4.00001 7.07737 4.00001 7.34154V14.8332H6.50001V10.6665C6.50001 10.0035 6.7634 9.36761 7.23224 8.89877C7.70108 8.42993 8.33697 8.16654 9.00001 8.16654C9.66305 8.16654 10.2989 8.42993 10.7678 8.89877C11.2366 9.36761 11.5 10.0035 11.5 10.6665V14.8332H14V7.34154C14 7.07737 14.1217 6.84154 14.3125 6.68737L9.00001 2.5557ZM9.00001 9.8332C8.77899 9.8332 8.56703 9.921 8.41075 10.0773C8.25447 10.2336 8.16668 10.4455 8.16668 10.6665V14.8332H9.83334V10.6665C9.83334 10.4455 9.74554 10.2336 9.58926 10.0773C9.43298 9.921 9.22102 9.8332 9.00001 9.8332Z" fill="#FBFBFB"/>
</svg>
