<svg width="27" height="28" viewBox="0 0 27 28" fill="none" xmlns="http://www.w3.org/2000/svg">
<g clip-path="url(#clip0_0_126)">
<path d="M10.1539 4.4834C10.3815 4.4834 10.605 4.54767 10.8012 4.66952C10.9974 4.79138 11.1591 4.96639 11.2695 5.17639L12.8297 8.14077C12.9303 8.33199 12.9852 8.54619 12.9896 8.76483C12.9941 8.98347 12.9479 9.19996 12.8552 9.39555L11.3524 12.5672C11.3524 12.5672 11.7881 14.9294 13.611 16.8529C15.4347 18.7758 17.6665 19.2279 17.6665 19.2279L20.6727 17.6421C20.8583 17.5442 21.0636 17.4955 21.271 17.5002C21.4784 17.5048 21.6816 17.5628 21.863 17.669L24.6823 19.3228C24.8809 19.4395 25.0464 19.61 25.1616 19.8168C25.2768 20.0236 25.3374 20.259 25.3374 20.4989V23.912C25.3374 25.6505 23.8065 26.906 22.245 26.3503C19.0379 25.2085 14.0595 23.0353 10.904 19.707C7.74916 16.3786 5.68825 11.128 4.60645 7.74449C4.07958 6.09813 5.26982 4.4834 6.91804 4.4834H10.1539Z" stroke="#FBFBFB" stroke-width="1.56" stroke-linejoin="round"/>
</g>
<defs>
<clipPath id="clip0_0_126">
<rect width="26.5455" height="28" fill="white"/>
</clipPath>
</defs>
</svg>
