<svg width="30" height="30" viewBox="0 0 30 30" fill="none" xmlns="http://www.w3.org/2000/svg">
<path d="M6.50465 11.3621V22.1053H9.82044V11.3621H6.50465Z" fill="#FBFBFB"/>
<path d="M8.16254 6.05684C7.10149 6.05684 6.23938 6.91895 6.23938 7.98C6.23938 9.04105 7.10149 9.90316 8.16254 9.90316C9.22359 9.90316 10.0857 9.04105 10.0857 7.98C10.0857 6.91895 9.22359 6.05684 8.16254 6.05684Z" fill="#FBFBFB"/>
<path d="M12.2026 11.3621V22.1053H15.5184V16.7558C15.5184 15.3632 15.7837 14.0147 17.5079 14.0147C19.21 14.0147 19.2321 15.6063 19.2321 16.8442V22.1053H22.5479V16.1811C22.5479 13.3074 21.9289 11.0968 18.5689 11.0968C16.9553 11.0968 15.8721 11.9811 15.43 12.8211H15.3858V11.3621H12.2026Z" fill="#FBFBFB"/>
<path fill-rule="evenodd" clip-rule="evenodd" d="M0 3.1579C0 1.41384 1.41384 0 3.15789 0H26.8421C28.5862 0 30 1.41384 30 3.15789V26.8421C30 28.5862 28.5862 30 26.8421 30H3.1579C1.41384 30 0 28.5862 0 26.8421V3.1579ZM3.15789 1.57895H26.8421C27.7141 1.57895 28.4211 2.28587 28.4211 3.15789V26.8421C28.4211 27.7141 27.7141 28.4211 26.8421 28.4211H3.1579C2.28587 28.4211 1.57895 27.7141 1.57895 26.8421V3.1579C1.57895 2.28587 2.28587 1.57895 3.15789 1.57895Z" fill="#FBFBFB"/>
</svg>
