<svg width="447" height="66" viewBox="0 0 447 66" fill="none" xmlns="http://www.w3.org/2000/svg">
<path d="M0 0H66V66H0V0Z" fill="#FBFBFB"/>
<path d="M11.16 24.1875C13.12 22.1225 14.9575 21.09 16.6725 21.09C18.1775 21.09 19.6825 21.9475 21.1875 23.6625L12.2625 32.325L21.2925 41.0925C20.6625 41.8625 19.9625 42.475 19.1925 42.93C18.4575 43.385 17.635 43.6125 16.725 43.6125C15.92 43.6125 15.0625 43.385 14.1525 42.93C13.2425 42.44 12.28 41.6525 11.265 40.5675L3.3375 32.2725L11.16 24.1875Z" fill="black"/>
<path d="M63.8524 32.2725L55.9249 40.5675C54.9099 41.6525 53.9299 42.44 52.9849 42.93C52.0399 43.385 51.1649 43.6125 50.3599 43.6125C49.4849 43.6125 48.6799 43.385 47.9449 42.93C47.2099 42.475 46.5274 41.8625 45.8974 41.0925L54.9274 32.325L46.0024 23.6625C47.5074 21.9475 49.0124 21.09 50.5174 21.09C52.1974 21.09 54.0349 22.1225 56.0299 24.1875L63.8524 32.2725Z" fill="black"/>
<path d="M34.212 17.568H34.644C35.172 17.568 35.712 17.628 36.264 17.748C36.84 17.868 37.356 18.096 37.812 18.432C38.292 18.744 38.676 19.188 38.964 19.764C39.252 20.316 39.396 21.024 39.396 21.888V27.504C39.396 28.368 39.252 29.088 38.964 29.664C38.676 30.216 38.292 30.66 37.812 30.996C37.356 31.308 36.84 31.524 36.264 31.644C35.712 31.764 35.172 31.824 34.644 31.824H34.212V17.568ZM32.844 45H32.412C31.86 45 31.308 44.94 30.756 44.82C30.204 44.7 29.688 44.484 29.208 44.172C28.752 43.836 28.38 43.392 28.092 42.84C27.804 42.264 27.66 41.544 27.66 40.68V35.064C27.66 34.2 27.804 33.492 28.092 32.94C28.38 32.364 28.752 31.92 29.208 31.608C29.688 31.272 30.204 31.044 30.756 30.924C31.308 30.804 31.86 30.744 32.412 30.744H32.844V45Z" fill="black"/>
<path d="M145.041 54.7581C142.449 54.7581 140.145 54.2141 138.129 53.1261C136.145 52.0061 134.577 50.4861 133.425 48.5661C132.305 46.6461 131.745 44.4381 131.745 41.9421C131.745 39.9581 132.065 38.1501 132.705 36.5181C133.345 34.8861 134.225 33.4781 135.345 32.2941C136.497 31.0781 137.857 30.1501 139.425 29.5101C141.025 28.8381 142.753 28.5021 144.609 28.5021C146.241 28.5021 147.761 28.8221 149.169 29.4621C150.577 30.0701 151.793 30.9181 152.817 32.0061C153.873 33.0941 154.673 34.3901 155.217 35.8941C155.793 37.3661 156.065 38.9821 156.033 40.7421L155.985 42.8541H135.393L134.289 38.9181H151.713L150.993 39.7341V38.5821C150.897 37.5261 150.545 36.5821 149.937 35.7501C149.329 34.9181 148.561 34.2621 147.633 33.7821C146.705 33.3021 145.697 33.0621 144.609 33.0621C142.881 33.0621 141.425 33.3981 140.241 34.0701C139.057 34.7101 138.161 35.6701 137.553 36.9501C136.945 38.1981 136.641 39.7501 136.641 41.6061C136.641 43.3661 137.009 44.9021 137.745 46.2141C138.481 47.4941 139.521 48.4861 140.865 49.1901C142.209 49.8941 143.761 50.2461 145.521 50.2461C146.769 50.2461 147.921 50.0381 148.977 49.6221C150.065 49.2061 151.233 48.4541 152.481 47.3661L154.977 50.8701C154.209 51.6381 153.265 52.3101 152.145 52.8861C151.057 53.4621 149.889 53.9261 148.641 54.2781C147.425 54.5981 146.225 54.7581 145.041 54.7581Z" fill="#FBFBFB"/>
<path d="M164.526 54.2781V22.6461H169.47V54.2781H164.526ZM159.294 33.8781V29.0781H175.326V33.8781H159.294Z" fill="#FBFBFB"/>
<path d="M179.731 54.2781V29.0781H184.675V54.2781H179.731ZM178.771 25.1901L177.139 22.7421L184.003 16.7421L187.123 20.6781L178.771 25.1901Z" fill="#FBFBFB"/>
<path d="M202.203 54.7581C199.867 54.7581 197.771 54.1821 195.915 53.0301C194.091 51.8781 192.635 50.3101 191.547 48.3261C190.491 46.3421 189.963 44.1181 189.963 41.6541C189.963 39.1901 190.491 36.9661 191.547 34.9821C192.635 32.9981 194.091 31.4301 195.915 30.2781C197.771 29.1261 199.867 28.5501 202.203 28.5501C204.443 28.5501 206.475 29.0141 208.299 29.9421C210.155 30.8381 211.563 32.0701 212.523 33.6381L209.787 36.9981C209.275 36.2621 208.619 35.5901 207.819 34.9821C207.019 34.3741 206.171 33.8941 205.275 33.5421C204.379 33.1901 203.515 33.0141 202.683 33.0141C201.147 33.0141 199.771 33.3981 198.555 34.1661C197.371 34.9021 196.427 35.9261 195.723 37.2381C195.019 38.5501 194.667 40.0221 194.667 41.6541C194.667 43.2861 195.035 44.7581 195.771 46.0701C196.507 47.3501 197.483 48.3741 198.699 49.1421C199.915 49.9101 201.259 50.2941 202.731 50.2941C203.595 50.2941 204.427 50.1501 205.227 49.8621C206.059 49.5741 206.859 49.1421 207.627 48.5661C208.395 47.9901 209.115 47.2861 209.787 46.4541L212.523 49.8141C211.499 51.2541 210.027 52.4381 208.107 53.3661C206.219 54.2941 204.251 54.7581 202.203 54.7581Z" fill="#FBFBFB"/>
<path d="M218.003 54.2781V29.0781H222.947V54.2781H218.003ZM220.403 23.5101C219.347 23.5101 218.531 23.2381 217.955 22.6941C217.379 22.1501 217.091 21.3821 217.091 20.3901C217.091 19.4621 217.379 18.7101 217.955 18.1341C218.563 17.5581 219.379 17.2701 220.403 17.2701C221.459 17.2701 222.275 17.5421 222.851 18.0861C223.427 18.6301 223.715 19.3981 223.715 20.3901C223.715 21.3181 223.411 22.0701 222.803 22.6461C222.227 23.2221 221.427 23.5101 220.403 23.5101Z" fill="#FBFBFB"/>
<path d="M240.242 54.7581C238.162 54.7581 236.258 54.1821 234.53 53.0301C232.834 51.8781 231.474 50.3101 230.45 48.3261C229.426 46.3421 228.914 44.1021 228.914 41.6061C228.914 39.0781 229.426 36.8381 230.45 34.8861C231.506 32.9021 232.914 31.3501 234.674 30.2301C236.466 29.1101 238.466 28.5501 240.674 28.5501C241.986 28.5501 243.186 28.7421 244.274 29.1261C245.362 29.5101 246.306 30.0541 247.106 30.7581C247.938 31.4301 248.61 32.2141 249.122 33.1101C249.666 34.0061 250.002 34.9661 250.13 35.9901L249.026 35.6061V29.0781H254.018V54.2781H249.026V48.2781L250.178 47.9421C249.986 48.8061 249.586 49.6541 248.978 50.4861C248.402 51.2861 247.65 52.0061 246.722 52.6461C245.826 53.2861 244.818 53.7981 243.698 54.1821C242.61 54.5661 241.458 54.7581 240.242 54.7581ZM241.538 50.1981C243.042 50.1981 244.37 49.8301 245.522 49.0941C246.674 48.3581 247.57 47.3501 248.21 46.0701C248.882 44.7581 249.218 43.2701 249.218 41.6061C249.218 39.9741 248.882 38.5181 248.21 37.2381C247.57 35.9581 246.674 34.9501 245.522 34.2141C244.37 33.4781 243.042 33.1101 241.538 33.1101C240.066 33.1101 238.754 33.4781 237.602 34.2141C236.482 34.9501 235.586 35.9581 234.914 37.2381C234.274 38.5181 233.954 39.9741 233.954 41.6061C233.954 43.2701 234.274 44.7581 234.914 46.0701C235.586 47.3501 236.482 48.3581 237.602 49.0941C238.754 49.8301 240.066 50.1981 241.538 50.1981Z" fill="#FBFBFB"/>
<path d="M284.886 54.7581C282.582 54.7581 280.518 54.1981 278.694 53.0781C276.902 51.9261 275.478 50.3741 274.422 48.4221C273.366 46.4381 272.838 44.1821 272.838 41.6541C272.838 39.1261 273.35 36.8861 274.374 34.9341C275.43 32.9501 276.854 31.3981 278.646 30.2781C280.438 29.1261 282.47 28.5501 284.742 28.5501C285.99 28.5501 287.19 28.7581 288.342 29.1741C289.526 29.5581 290.582 30.1021 291.51 30.8061C292.438 31.4781 293.158 32.2301 293.67 33.0621C294.214 33.8621 294.486 34.6781 294.486 35.5101L293.046 35.6061V18.7581H297.99V54.2781H293.046V48.2781H294.006C294.006 49.0461 293.75 49.8141 293.238 50.5821C292.726 51.3181 292.038 52.0061 291.174 52.6461C290.342 53.2861 289.366 53.7981 288.246 54.1821C287.158 54.5661 286.038 54.7581 284.886 54.7581ZM285.558 50.4861C287.062 50.4861 288.39 50.1021 289.542 49.3341C290.694 48.5661 291.59 47.5261 292.23 46.2141C292.902 44.8701 293.238 43.3501 293.238 41.6541C293.238 39.9581 292.902 38.4541 292.23 37.1421C291.59 35.7981 290.694 34.7421 289.542 33.9741C288.39 33.2061 287.062 32.8221 285.558 32.8221C284.054 32.8221 282.726 33.2061 281.574 33.9741C280.422 34.7421 279.51 35.7981 278.838 37.1421C278.198 38.4541 277.878 39.9581 277.878 41.6541C277.878 43.3501 278.198 44.8701 278.838 46.2141C279.51 47.5261 280.422 48.5661 281.574 49.3341C282.726 50.1021 284.054 50.4861 285.558 50.4861Z" fill="#FBFBFB"/>
<path d="M316.124 54.7581C313.66 54.7581 311.452 54.1981 309.5 53.0781C307.58 51.9261 306.06 50.3741 304.94 48.4221C303.82 46.4381 303.26 44.1821 303.26 41.6541C303.26 39.1261 303.82 36.8861 304.94 34.9341C306.06 32.9501 307.58 31.3981 309.5 30.2781C311.452 29.1261 313.66 28.5501 316.124 28.5501C318.556 28.5501 320.732 29.1261 322.652 30.2781C324.604 31.3981 326.14 32.9501 327.26 34.9341C328.38 36.8861 328.94 39.1261 328.94 41.6541C328.94 44.1821 328.38 46.4381 327.26 48.4221C326.14 50.3741 324.604 51.9261 322.652 53.0781C320.732 54.1981 318.556 54.7581 316.124 54.7581ZM316.124 50.2461C317.628 50.2461 318.972 49.8781 320.156 49.1421C321.34 48.3741 322.268 47.3501 322.94 46.0701C323.612 44.7581 323.932 43.2861 323.9 41.6541C323.932 39.9901 323.612 38.5181 322.94 37.2381C322.268 35.9261 321.34 34.9021 320.156 34.1661C318.972 33.4301 317.628 33.0621 316.124 33.0621C314.62 33.0621 313.26 33.4461 312.044 34.2141C310.86 34.9501 309.932 35.9741 309.26 37.2861C308.588 38.5661 308.268 40.0221 308.3 41.6541C308.268 43.2861 308.588 44.7581 309.26 46.0701C309.932 47.3501 310.86 48.3741 312.044 49.1421C313.26 49.8781 314.62 50.2461 316.124 50.2461Z" fill="#FBFBFB"/>
<path d="M400.689 54.6781C398.956 54.6781 397.369 54.1981 395.929 53.2381C394.516 52.2781 393.382 50.9715 392.529 49.3181C391.676 47.6648 391.249 45.7981 391.249 43.7181C391.249 41.6115 391.676 39.7448 392.529 38.1181C393.409 36.4648 394.582 35.1715 396.049 34.2381C397.542 33.3048 399.209 32.8381 401.049 32.8381C402.142 32.8381 403.142 32.9981 404.049 33.3181C404.956 33.6381 405.742 34.0915 406.409 34.6781C407.102 35.2381 407.662 35.8915 408.089 36.6381C408.542 37.3848 408.822 38.1848 408.929 39.0381L408.009 38.7181V33.2781H412.169V54.2781H408.009V49.2781L408.969 48.9981C408.809 49.7181 408.476 50.4248 407.969 51.1181C407.489 51.7848 406.862 52.3848 406.089 52.9181C405.342 53.4515 404.502 53.8781 403.569 54.1981C402.662 54.5181 401.702 54.6781 400.689 54.6781ZM401.769 50.8781C403.022 50.8781 404.129 50.5715 405.089 49.9581C406.049 49.3448 406.796 48.5048 407.329 47.4381C407.889 46.3448 408.169 45.1048 408.169 43.7181C408.169 42.3581 407.889 41.1448 407.329 40.0781C406.796 39.0115 406.049 38.1715 405.089 37.5581C404.129 36.9448 403.022 36.6381 401.769 36.6381C400.542 36.6381 399.449 36.9448 398.489 37.5581C397.556 38.1715 396.809 39.0115 396.249 40.0781C395.716 41.1448 395.449 42.3581 395.449 43.7181C395.449 45.1048 395.716 46.3448 396.249 47.4381C396.809 48.5048 397.556 49.3448 398.489 49.9581C399.449 50.5715 400.542 50.8781 401.769 50.8781Z" fill="#FBFBFB"/>
<path d="M418.001 54.2781V24.6781H422.121V54.2781H418.001Z" fill="#FBFBFB"/>
<path d="M437.37 54.6781C435.21 54.6781 433.29 54.2248 431.61 53.3181C429.957 52.3848 428.65 51.1181 427.69 49.5181C426.757 47.9181 426.29 46.0781 426.29 43.9981C426.29 42.3448 426.557 40.8381 427.09 39.4781C427.623 38.1181 428.357 36.9448 429.29 35.9581C430.25 34.9448 431.383 34.1715 432.69 33.6381C434.023 33.0781 435.463 32.7981 437.01 32.7981C438.37 32.7981 439.637 33.0648 440.81 33.5981C441.983 34.1048 442.997 34.8115 443.85 35.7181C444.73 36.6248 445.397 37.7048 445.85 38.9581C446.33 40.1848 446.557 41.5315 446.53 42.9981L446.49 44.7581H429.33L428.41 41.4781H442.93L442.33 42.1581V41.1981C442.25 40.3181 441.956 39.5315 441.45 38.8381C440.943 38.1448 440.303 37.5981 439.53 37.1981C438.757 36.7981 437.917 36.5981 437.01 36.5981C435.57 36.5981 434.357 36.8781 433.37 37.4381C432.383 37.9715 431.637 38.7715 431.13 39.8381C430.623 40.8781 430.37 42.1715 430.37 43.7181C430.37 45.1848 430.676 46.4648 431.29 47.5581C431.903 48.6248 432.77 49.4515 433.89 50.0381C435.01 50.6248 436.303 50.9181 437.77 50.9181C438.81 50.9181 439.77 50.7448 440.65 50.3981C441.557 50.0515 442.53 49.4248 443.57 48.5181L445.65 51.4381C445.01 52.0781 444.223 52.6381 443.29 53.1181C442.383 53.5981 441.41 53.9848 440.37 54.2781C439.357 54.5448 438.357 54.6781 437.37 54.6781Z" fill="#FBFBFB"/>
<path d="M84.0147 28.3053C83.845 21.7999 85.1461 17.1613 87.9179 14.3894C90.3504 11.9569 94.1687 10.9104 99.373 11.2498L98.9488 39.6755L127.714 39.2513C127.94 41.514 127.799 43.6353 127.29 45.6152C126.837 47.5386 125.875 49.2356 124.405 50.7064C123.104 52.0075 121.35 53.0257 119.144 53.7611C116.881 54.4399 114.053 54.7228 110.658 54.6096L84.4389 54.0157L84.0147 28.3053Z" fill="#FBFBFB"/>
<path d="M350.163 37.1526C345.391 32.7286 342.981 28.5568 342.935 24.6371C342.894 21.1973 344.814 17.7344 348.693 14.2484L368.732 34.4131L388.527 13.5379C390.304 14.957 391.723 16.5404 392.784 18.288C393.843 19.9556 394.386 21.8293 394.41 23.9092C394.432 25.7491 393.935 27.7151 392.92 29.8072C391.824 31.9003 390.05 34.1214 387.598 36.4705L368.853 54.8131L350.163 37.1526Z" fill="#FBFBFB"/>
</svg>
