<svg width="20" height="19" viewBox="0 0 20 19" fill="none" xmlns="http://www.w3.org/2000/svg">
<path d="M13.4734 16.0205C13.3698 15.9574 13.2795 15.8729 13.2077 15.7704C13.1745 15.7232 13.1465 15.6732 13.1233 15.6216H1.34698V4.01418H17.3317V11.5934C17.673 11.6242 17.9593 11.8484 18.0795 12.1553C18.1859 12.0969 18.3046 12.0609 18.4293 12.0499C18.5136 12.0426 18.5974 12.0478 18.6786 12.0638V1.12252C18.6786 0.503559 18.1752 0 17.5563 0H1.12247C0.503559 0 0 0.503559 0 1.12252V15.8462C0 16.4651 0.503559 16.9686 1.12247 16.9686H13.3711C13.2755 16.7751 13.2528 16.5566 13.3091 16.3464C13.3415 16.2254 13.3976 16.1151 13.4734 16.0205ZM16.0991 1.88493C16.0991 1.65603 16.2846 1.47043 16.5135 1.47043H16.928C17.1569 1.47043 17.3424 1.65599 17.3424 1.88493V2.35467C17.3424 2.58357 17.1569 2.76912 16.928 2.76912H16.5135C16.2846 2.76912 16.0991 2.58357 16.0991 2.35467V1.88493ZM14.1719 1.88493C14.1719 1.65603 14.3574 1.47043 14.5863 1.47043H15.0008C15.2297 1.47043 15.4152 1.65599 15.4152 1.88493V2.35467C15.4152 2.58357 15.2297 2.76912 15.0008 2.76912H14.5863C14.3574 2.76912 14.1719 2.58357 14.1719 2.35467V1.88493ZM12.2446 1.88493C12.2446 1.65603 12.4302 1.47043 12.659 1.47043H13.0735C13.3024 1.47043 13.488 1.65599 13.488 1.88493V2.35467C13.488 2.58357 13.3024 2.76912 13.0735 2.76912H12.659C12.4302 2.76912 12.2446 2.58357 12.2446 2.35467V1.88493Z" fill="#FBFBFB"/>
<path d="M19.9973 15.2301L19.8728 14.5238C19.856 14.4287 19.7653 14.3651 19.6701 14.3819L19.042 14.4926C18.9666 14.3157 18.8703 14.1499 18.756 13.9982L19.1663 13.5092C19.1961 13.4738 19.2106 13.4278 19.2066 13.3816C19.2025 13.3353 19.1803 13.2926 19.1447 13.2628L18.5954 12.8017C18.5599 12.7719 18.5138 12.7575 18.4676 12.7615C18.4214 12.7655 18.3787 12.7878 18.3489 12.8233L17.939 13.312C17.7707 13.2262 17.5908 13.1601 17.4022 13.1165V12.4787C17.4022 12.3821 17.3239 12.3037 17.2273 12.3037H16.51C16.4135 12.3037 16.3351 12.3821 16.3351 12.4787V13.1165C16.1464 13.1601 15.9666 13.2262 15.7983 13.312L15.3883 12.8234C15.3262 12.7494 15.2159 12.7397 15.1418 12.8018L14.5924 13.2628C14.5569 13.2926 14.5347 13.3353 14.5306 13.3816C14.5266 13.4278 14.5411 13.4738 14.5709 13.5093L14.9812 13.9983C14.8671 14.1499 14.7706 14.3158 14.6952 14.4926L14.0671 14.3819C13.9721 14.3652 13.8813 14.4287 13.8644 14.5238L13.7399 15.2301C13.7319 15.2758 13.7423 15.3227 13.7688 15.3608C13.7956 15.3988 13.836 15.4247 13.8817 15.4327L14.5103 15.5435C14.5205 15.7383 14.5544 15.9267 14.609 16.1061L14.0566 16.425C14.0164 16.4481 13.9871 16.4864 13.975 16.5311C13.963 16.5759 13.9693 16.6237 13.9925 16.6639L14.3511 17.285C14.3742 17.3252 14.4125 17.3544 14.4572 17.3664C14.4721 17.3704 14.4873 17.3724 14.5025 17.3724C14.533 17.3724 14.5631 17.3645 14.59 17.349L15.1429 17.0297C15.2729 17.169 15.4197 17.2925 15.5801 17.3969L15.3618 17.9966C15.346 18.0403 15.348 18.0884 15.3676 18.1304C15.3872 18.1725 15.4227 18.205 15.4663 18.2208L16.1401 18.4661C16.1595 18.4731 16.1798 18.4767 16.2 18.4767C16.2252 18.4767 16.2506 18.4712 16.274 18.4603C16.3161 18.4407 16.3485 18.4052 16.3644 18.3616L16.5826 17.7618C16.6762 17.7731 16.7715 17.779 16.8681 17.779C16.9647 17.779 17.06 17.773 17.1536 17.7618L17.3719 18.3616C17.3877 18.4052 17.4203 18.4407 17.4623 18.4603C17.4856 18.4712 17.5109 18.4767 17.5363 18.4767C17.5565 18.4767 17.5767 18.4732 17.5961 18.4661L18.27 18.2208C18.3135 18.205 18.349 18.1724 18.3686 18.1304C18.3882 18.0884 18.3903 18.0403 18.3745 17.9966L18.1561 17.397C18.3164 17.2926 18.4632 17.169 18.5933 17.0298L19.1462 17.3491C19.1731 17.3645 19.2033 17.3725 19.2337 17.3725C19.2488 17.3725 19.2642 17.3704 19.279 17.3665C19.3238 17.3545 19.362 17.3252 19.3851 17.2851L19.7437 16.6639C19.7669 16.6238 19.7732 16.5759 19.7612 16.5311C19.7492 16.4864 19.7199 16.4482 19.6797 16.425L19.1273 16.1062C19.1819 15.9267 19.2157 15.7383 19.2259 15.5436L19.8545 15.4328C19.9002 15.4247 19.9408 15.3989 19.9674 15.3608C19.995 15.3227 20.0054 15.2758 19.9973 15.2301ZM16.8687 16.3525C16.3374 16.3525 15.9066 15.9217 15.9066 15.3904C15.9066 14.859 16.3375 14.4283 16.8687 14.4283C17.4 14.4283 17.8308 14.859 17.8308 15.3904C17.8308 15.9217 17.4 16.3525 16.8687 16.3525Z" fill="#FBFBFB"/>
<path d="M7.84391 10.4484C7.84391 10.2221 7.71127 10.0142 7.50595 9.91886L5.62684 9.04576L7.506 8.17257C7.71127 8.07713 7.84391 7.86928 7.84391 7.64306V7.62786C7.84391 7.42735 7.74299 7.24328 7.57411 7.13569C7.48066 7.07601 7.37184 7.04443 7.25949 7.04443C7.1748 7.04443 7.08979 7.06306 7.01373 7.09839L4.00952 8.49543C3.8043 8.59088 3.67175 8.79872 3.67175 9.0249V9.06667C3.67175 9.29256 3.80425 9.50027 4.00957 9.59619L7.01406 10.9934C7.09174 11.0293 7.17447 11.0476 7.25991 11.0476C7.37127 11.0476 7.47976 11.0159 7.57411 10.9559C7.74309 10.8479 7.84396 10.664 7.84396 10.4637L7.84391 10.4484Z" fill="#FBFBFB"/>
<path d="M10.8081 5.62091C10.6985 5.47089 10.5222 5.38135 10.3365 5.38135H10.3216C10.0666 5.38135 9.84301 5.54447 9.76533 5.78694L7.78596 11.9199C7.72962 12.097 7.76134 12.2921 7.87078 12.442C7.98037 12.592 8.15664 12.6815 8.34234 12.6815H8.35734C8.61224 12.6815 8.83566 12.5184 8.91324 12.276L10.8924 6.14343C10.9492 5.96649 10.9177 5.77117 10.8081 5.62091Z" fill="#FBFBFB"/>
<path d="M14.6691 8.49534L11.6649 7.0983C11.5891 7.06306 11.5042 7.04443 11.4195 7.04443C11.3072 7.04443 11.1983 7.07592 11.1049 7.1355C10.9358 7.24328 10.8348 7.42731 10.8348 7.62782V7.64301C10.8348 7.86905 10.9674 8.07694 11.1728 8.17276L13.0519 9.04576L11.1728 9.91881C10.9675 10.0142 10.8348 10.2221 10.8348 10.4484V10.4637C10.8348 10.6639 10.9358 10.8478 11.1048 10.9559C11.1989 11.0158 11.3074 11.0475 11.4189 11.0475C11.5043 11.0475 11.5869 11.0293 11.6651 10.9932L14.6695 9.596C14.8746 9.50031 15.0071 9.29257 15.0071 9.06667V9.0249C15.007 8.79867 14.8744 8.59083 14.6691 8.49534Z" fill="#FBFBFB"/>
</svg>
