<svg width="17" height="20" viewBox="0 0 17 20" fill="none" xmlns="http://www.w3.org/2000/svg">
<path d="M11.8182 12.7273H4.54545C3.34037 12.7287 2.18505 13.2081 1.33293 14.0602C0.480802 14.9123 0.00144351 16.0676 0 17.2727V19.0909C0 19.332 0.0957789 19.5632 0.266266 19.7337C0.436754 19.9042 0.667985 20 0.909091 20H15.4545C15.6957 20 15.9269 19.9042 16.0974 19.7337C16.2679 19.5632 16.3636 19.332 16.3636 19.0909V17.2727C16.3622 16.0676 15.8828 14.9123 15.0307 14.0602C14.1786 13.2081 13.0233 12.7287 11.8182 12.7273ZM14.5455 18.1818H1.81818V17.2727C1.81818 16.5494 2.10552 15.8557 2.61698 15.3443C3.12844 14.8328 3.82214 14.5455 4.54545 14.5455H11.8182C12.5415 14.5455 13.2352 14.8328 13.7467 15.3443C14.2581 15.8557 14.5455 16.5494 14.5455 17.2727V18.1818ZM14.2791 8.82455C14.3807 8.72268 14.4566 8.59816 14.5007 8.46123C14.5447 8.32429 14.5557 8.17886 14.5326 8.03687C14.5096 7.89488 14.4531 7.7604 14.3679 7.64446C14.2828 7.52853 14.1713 7.43447 14.0427 7.37C12.7845 6.73909 12.7273 4.59 12.7273 4.54545C12.7273 3.33993 12.2484 2.18377 11.3959 1.33133C10.5435 0.478895 9.38735 0 8.18182 0C6.97629 0 5.82013 0.478895 4.9677 1.33133C4.11526 2.18377 3.63636 3.33993 3.63636 4.54545C3.63636 4.56727 3.58636 6.73818 2.32091 7.37091C2.19231 7.43538 2.08085 7.52944 1.99569 7.64537C1.91052 7.7613 1.85408 7.89579 1.83101 8.03778C1.80794 8.17977 1.81889 8.3252 1.86296 8.46214C1.90704 8.59907 1.98298 8.72359 2.08455 8.82545C3.78294 10.2615 5.95978 11.0054 8.18182 10.9091C10.404 11.0051 12.5808 10.2609 14.2791 8.82455ZM5.45455 4.54545C5.45455 3.82214 5.74188 3.12844 6.25334 2.61698C6.76481 2.10552 7.4585 1.81818 8.18182 1.81818C8.90514 1.81818 9.59883 2.10552 10.1103 2.61698C10.6218 3.12844 10.9091 3.82214 10.9091 4.54545C10.926 5.84344 11.3563 7.10223 12.1373 8.13909C10.9226 8.79134 9.56023 9.11918 8.18182 9.09091C6.80341 9.11913 5.44103 8.7913 4.22636 8.13909C5.00737 7.10223 5.43759 5.84344 5.45455 4.54545Z" fill="#FBFBFB"/>
</svg>
