<svg width="38" height="28" viewBox="0 0 38 28" fill="none" xmlns="http://www.w3.org/2000/svg">
<path d="M37.38 3.79567C37.2243 3.04218 36.8732 2.33003 36.3608 1.73132C36.2568 1.60563 36.1479 1.4938 36.0289 1.38036C35.1175 0.503142 33.8496 0 32.5503 0H4.9214C3.60761 0 2.372 0.49046 1.44215 1.38085C1.32447 1.49324 1.21535 1.60619 1.10732 1.73588C0.597207 2.33207 0.247592 3.04323 0.0955824 3.79777C0.032056 4.09408 0 4.40111 0 4.71171V23.2887C0 23.935 0.137153 24.5643 0.409043 25.1626C0.64434 25.6939 1.00135 26.1976 1.44186 26.6191C1.55281 26.7249 1.66303 26.8224 1.78072 26.9175C2.66145 27.6158 3.77668 28 4.9214 28H32.5503C33.7024 28 34.8165 27.6143 35.6949 26.9098C35.8123 26.8188 35.9211 26.7233 36.03 26.6191C36.4558 26.2119 36.7942 25.744 37.0375 25.2281L37.0695 25.1545C37.3364 24.5676 37.4718 23.9403 37.4718 23.2888V4.71171C37.4718 4.40517 37.4409 4.09611 37.38 3.79567ZM2.5486 3.00694C2.6182 2.90941 2.70705 2.80928 2.82041 2.69991C3.38315 2.16146 4.12944 1.86515 4.92132 1.86515H32.5502C33.349 1.86515 34.0956 2.16195 34.6521 2.70096C34.7482 2.79394 34.8399 2.89715 34.92 3.00028L35.1313 3.27214L20.3841 15.5768C19.9294 15.9584 19.3441 16.1684 18.7357 16.1684C18.1333 16.1684 17.5485 15.9589 17.0884 15.5773L2.35589 3.27564L2.5486 3.00694ZM1.95812 23.4527C1.95014 23.4021 1.94832 23.346 1.94832 23.2887V5.09637L13.3926 14.6541L2.0638 24.1102L1.95812 23.4527ZM34.0246 25.7598C33.5817 26.0045 33.0716 26.1342 32.5503 26.1342H4.9214C4.39979 26.1342 3.8899 26.0045 3.44726 25.7598L2.98413 25.5028L14.6894 15.7371L15.9722 16.8053C16.7417 17.4449 17.723 17.7975 18.7358 17.7975C19.7524 17.7975 20.7353 17.4449 21.5043 16.8053L22.7866 15.7366L34.4878 25.5033L34.0246 25.7598ZM35.523 23.2887C35.523 23.345 35.5219 23.4006 35.5145 23.4501L35.4131 24.1138L24.0795 14.6592L35.523 5.10099V23.2887Z" fill="#FBFBFB"/>
<path d="M37.38 3.79567C37.2243 3.04218 36.8732 2.33003 36.3608 1.73132C36.2568 1.60563 36.1479 1.4938 36.0289 1.38036C35.1175 0.503142 33.8496 0 32.5503 0H4.9214C3.60761 0 2.372 0.49046 1.44215 1.38085C1.32447 1.49324 1.21535 1.60619 1.10732 1.73588C0.597207 2.33207 0.247592 3.04323 0.0955824 3.79777C0.032056 4.09408 0 4.40111 0 4.71171V23.2887C0 23.935 0.137153 24.5643 0.409043 25.1626C0.64434 25.6939 1.00135 26.1976 1.44186 26.6191C1.55281 26.7249 1.66303 26.8224 1.78072 26.9175C2.66145 27.6158 3.77668 28 4.9214 28H32.5503C33.7024 28 34.8165 27.6143 35.6949 26.9098C35.8123 26.8188 35.9211 26.7233 36.03 26.6191C36.4558 26.2119 36.7942 25.744 37.0375 25.2281L37.0695 25.1545C37.3364 24.5676 37.4718 23.9403 37.4718 23.2888V4.71171C37.4718 4.40517 37.4409 4.09611 37.38 3.79567ZM2.5486 3.00694C2.6182 2.90941 2.70705 2.80928 2.82041 2.69991C3.38315 2.16146 4.12944 1.86515 4.92132 1.86515H32.5502C33.349 1.86515 34.0956 2.16195 34.6521 2.70096C34.7482 2.79394 34.8399 2.89715 34.92 3.00028L35.1313 3.27214L20.3841 15.5768C19.9294 15.9584 19.3441 16.1684 18.7357 16.1684C18.1333 16.1684 17.5485 15.9589 17.0884 15.5773L2.35589 3.27564L2.5486 3.00694ZM1.95812 23.4527C1.95014 23.4021 1.94832 23.346 1.94832 23.2887V5.09637L13.3926 14.6541L2.0638 24.1102L1.95812 23.4527ZM34.0246 25.7598C33.5817 26.0045 33.0716 26.1342 32.5503 26.1342H4.9214C4.39979 26.1342 3.8899 26.0045 3.44726 25.7598L2.98413 25.5028L14.6894 15.7371L15.9722 16.8053C16.7417 17.4449 17.723 17.7975 18.7358 17.7975C19.7524 17.7975 20.7353 17.4449 21.5043 16.8053L22.7866 15.7366L34.4878 25.5033L34.0246 25.7598ZM35.523 23.2887C35.523 23.345 35.5219 23.4006 35.5145 23.4501L35.4131 24.1138L24.0795 14.6592L35.523 5.10099V23.2887Z" stroke="#FBFBFB"/>
</svg>
